<?xml version="1.0" standalone="no"?>
<!DOCTYPE svg PUBLIC "-//W3C//DTD SVG 20010904//EN"
 "http://www.w3.org/TR/2001/REC-SVG-20010904/DTD/svg10.dtd">
<svg version="1.0" xmlns="http://www.w3.org/2000/svg"
 width="150.000000pt" height="150.000000pt" viewBox="0 0 150.000000 150.000000"
 preserveAspectRatio="xMidYMid meet">

<g transform="translate(0.000000,150.000000) scale(0.100000,-0.100000)"
fill="#000000" stroke="none">
<path d="M676 1095 c-21 -22 -22 -29 -14 -91 9 -76 27 -111 63 -120 54 -13 77
22 99 152 12 72 -96 116 -148 59z m129 -66 c10 -56 -8 -77 -66 -77 -40 0 -48
4 -58 25 -9 20 -7 62 4 83 2 3 28 5 59 5 l55 0 6 -36z"/>
<path d="M698 1023 c7 -3 16 -2 19 1 4 3 -2 6 -13 5 -11 0 -14 -3 -6 -6z"/>
<path d="M758 1023 c7 -3 16 -2 19 1 4 3 -2 6 -13 5 -11 0 -14 -3 -6 -6z"/>
<path d="M495 900 c3 -5 8 -10 11 -10 2 0 4 5 4 10 0 6 -5 10 -11 10 -5 0 -7
-4 -4 -10z"/>
<path d="M225 890 c-3 -5 -1 -10 4 -10 6 0 11 5 11 10 0 6 -2 10 -4 10 -3 0
-8 -4 -11 -10z"/>
<path d="M587 683 c-4 -3 -7 -24 -7 -46 0 -52 12 -41 13 12 1 23 2 41 1 41 0
0 -4 -3 -7 -7z"/>
<path d="M892 665 c0 -16 2 -22 5 -12 2 9 2 23 0 30 -3 6 -5 -1 -5 -18z"/>
<path d="M495 671 c-3 -5 -1 -12 5 -16 5 -3 10 1 10 9 0 18 -6 21 -15 7z"/>
<path d="M970 660 c0 -5 5 -10 10 -10 6 0 10 5 10 10 0 6 -4 10 -10 10 -5 0
-10 -4 -10 -10z"/>
<path d="M572 468 c-7 -7 -12 -18 -12 -25 0 -7 -5 -13 -11 -13 -6 0 4 -12 23
-27 18 -15 59 -51 91 -80 32 -29 66 -53 75 -53 10 0 48 27 86 60 37 33 78 68
91 76 19 13 22 18 12 29 -10 11 -15 10 -31 -3 -31 -28 -111 -21 -188 16 -70
33 -116 40 -136 20z"/>
</g>
</svg>
